<?xml version="1.0" encoding="iso-8859-1"?>
<!-- Uploaded to: SVG Repo, www.svgrepo.com, Generator: SVG Repo Mixer Tools -->
<!DOCTYPE svg PUBLIC "-//W3C//DTD SVG 1.1//EN" "http://www.w3.org/Graphics/SVG/1.1/DTD/svg11.dtd">
<svg fill="#000000" height="800px" width="800px" version="1.1" id="Capa_1" xmlns="http://www.w3.org/2000/svg" xmlns:xlink="http://www.w3.org/1999/xlink" 
	 viewBox="0 0 486.68 486.68" xml:space="preserve">
<g>
	<path d="M449.651,389.554l-95.986-95.965c-26.456-26.459-44.545-60.11-52.039-96.779v-0.023
		c14.139-47.391-1.035-105.479-43.543-147.993C199.981-9.287,112.74-16.56,63.6,32.593c-49.152,49.162-41.878,136.402,16.209,194.49
		c42.506,42.502,100.564,57.666,147.946,43.559l0.063,0.016c36.66,7.469,70.314,25.565,96.77,52.014l95.971,95.957
		c8.041,8.033,21.051,8.033,29.092,0c3.855-3.855,6.02-9.084,6.02-14.538C455.671,398.636,453.507,393.409,449.651,389.554z
		 M67.612,113.308h52.619v49.27H78.616C71.031,146.315,67.317,129.388,67.612,113.308z M144.307,113.308l49.356-0.009l0.031,27.491
		c0.016,7.273,0.016,14.531,0.032,21.779l-49.42,0.008V113.308z M217.771,140.759l-0.03-27.46h41.535
		c7.584,16.262,11.302,33.19,11.002,49.271h-52.476C217.787,155.313,217.787,148.049,217.771,140.759z M244.684,89.223h-26.96
		l-0.032-26.997c5.001,3.784,9.859,7.892,14.466,12.498C236.768,79.341,240.891,84.215,244.684,89.223z M193.6,47.616l0.047,41.606
		l-49.34,0.008V36.605C160.405,36.308,177.334,40.022,193.6,47.616z M120.231,40.242V89.23H71.253
		c3.539-11.536,9.59-22.021,18.272-30.705C98.208,49.843,108.696,43.784,120.231,40.242z M93.208,186.653h27.023v27.021
		c-5.001-3.801-9.891-7.916-14.498-12.531C101.127,196.536,97.005,191.653,93.208,186.653z M144.307,228.26v-41.606l49.451-0.008
		c0.03,18.314,0.047,35.986,0.047,52.617C177.643,239.6,160.641,235.884,144.307,228.26z M217.882,235.556
		c0-15.541-0.016-31.982-0.048-48.91h48.81c-3.544,11.537-9.594,22.021-18.276,30.705
		C239.747,225.97,229.321,232.005,217.882,235.556z"/>
	<path d="M232.268,318.729c-7.884-2.82-16.566-2.397-24.136,1.185l-1.349,0.635l27.006,57.094l1.33-0.628
		c15.771-7.452,22.512-26.27,15.049-42.053C246.581,327.39,240.152,321.552,232.268,318.729z"/>
	<polygon points="179.572,333.425 206.579,390.509 221.218,383.59 194.229,326.489 	"/>
	<path d="M38.635,353.917c0,0.008-0.016-0.008-0.031,0c-6.239,2.949,2.764,35.014,20.06,71.607
		c17.296,36.595,36.398,63.871,42.601,60.939v0.009l91.144-89.247l-27.003-57.102L38.635,353.917z"/>
</g>
</svg>