<?xml version="1.0" encoding="utf-8"?>

<!DOCTYPE svg PUBLIC "-//W3C//DTD SVG 1.1//EN" "http://www.w3.org/Graphics/SVG/1.1/DTD/svg11.dtd">
<!-- Uploaded to: SVG Repo, www.svgrepo.com, Generator: SVG Repo Mixer Tools -->
<svg height="800px" width="800px" version="1.1" id="_x32_" xmlns="http://www.w3.org/2000/svg" xmlns:xlink="http://www.w3.org/1999/xlink" 
	 viewBox="0 0 512 512"  xml:space="preserve">
<style type="text/css">
	.st0{fill:#000000;}
</style>
<g>
	<path class="st0" d="M417.656,468.125c-12.115,0-21.941,9.814-21.941,21.937c0,12.116,9.826,21.938,21.941,21.938
		c12.12,0,21.938-9.822,21.938-21.938C439.594,477.938,429.776,468.125,417.656,468.125z"/>
	<path class="st0" d="M255.181,96.232c26.561,0,48.116-21.555,48.116-48.112c0-26.59-21.555-48.12-48.116-48.12
		c-26.582,0-48.124,21.531-48.124,48.12C207.057,74.677,228.599,96.232,255.181,96.232z"/>
	<path class="st0" d="M376.323,479.707c-0.418-3.6-2.374-6.85-5.361-8.929c-2.991-2.071-6.731-2.733-10.252-1.84l-45.173,7.296
		L252.042,335.09c-3.114,1.952-6.552,3.425-10.243,4.277c-1.725,0.391-3.477,0.598-5.246,0.725l70.348,161.488
		c1.9,5.592,7.09,9.399,12.992,9.503l45.755,0.908c3.632,0.088,7.125-1.426,9.57-4.11c2.446-2.684,3.617-6.317,3.19-9.925
		L376.323,479.707z"/>
	<path class="st0" d="M252.505,302.463l-17.572-95.006c0,0-13.124-73.284-13.367-74.017c-2.016-15.142-6.5-26.764-21.288-34.834
		c-21.351-11.669-47.814-9.782-62.486,22.814c-14.673,32.596-50.375,99.22-58.52,118.784c-8.153,19.564-8.472,42.632-3.955,61.152
		l19.58,186.101c-0.08,13.486,10.786,24.462,24.263,24.542c13.486,0.08,24.474-10.778,24.559-24.255l9.506-198.926l35.24-77.116
		l1.693,6.086l25.864,93.094c2.322,10.093,12.379,16.37,22.448,14.036C248.541,322.608,254.834,312.54,252.505,302.463z"/>
</g>
</svg>