<?xml version="1.0" encoding="iso-8859-1"?>
<!-- Uploaded to: SVG Repo, www.svgrepo.com, Generator: SVG Repo Mixer Tools -->
<!DOCTYPE svg PUBLIC "-//W3C//DTD SVG 1.1//EN" "http://www.w3.org/Graphics/SVG/1.1/DTD/svg11.dtd">
<svg fill="#000000" height="800px" width="800px" version="1.1" id="Capa_1" xmlns="http://www.w3.org/2000/svg" xmlns:xlink="http://www.w3.org/1999/xlink" 
	 viewBox="0 0 297 297" xml:space="preserve">
<g>
	<path d="M197.067,121.771c-2.011,1.826-5.339,3.077-7.856,3.077c-2.855,0-5.7-1.158-7.772-3.438
		c-3.897-4.291-3.578-10.928,0.712-14.825c0.014-0.013,0.03-0.026,0.044-0.039c-14.853-11.666-33.548-18.65-53.856-18.65
		c-20.308,0-39.004,6.984-53.856,18.65c0.015,0.013,0.03,0.026,0.044,0.039c4.29,3.897,4.609,10.534,0.712,14.825
		c-2.071,2.279-4.916,3.438-7.772,3.438c-2.517,0-5.845-1.602-7.856-3.428c-11.661,14.851-18.641,33.542-18.641,53.845
		c0,20.302,6.98,38.994,18.641,53.845c4.291-3.899,11.73-4.281,15.628,0.01c3.897,4.291,3.578,10.928-0.712,14.825
		c-0.014,0.013-0.03,0.026-0.044,0.039c14.853,11.666,33.549,18.65,53.856,18.65c20.308,0,39.004-6.984,53.856-18.65
		c-0.014-0.013-0.03-0.026-0.044-0.039c-4.29-3.897-4.609-10.534-0.712-14.825c3.897-4.289,11.336-3.909,15.628-0.01
		c11.661-14.851,18.641-33.542,18.641-53.845C215.708,154.962,208.728,136.622,197.067,121.771z M77.657,124.367
		c4.987-2.957,11.423-1.311,14.379,3.675c2.462,4.152,4.612,8.528,6.392,13.006c2.141,5.386-0.49,11.488-5.877,13.629
		c-1.272,0.505-2.583,0.745-3.873,0.745c-4.173,0-8.12-2.507-9.756-6.622c-1.375-3.461-3.038-6.843-4.941-10.054
		C71.026,133.76,72.671,127.323,77.657,124.367z M98.423,209.495c-1.779,4.476-3.93,8.851-6.393,13.004
		c-1.961,3.306-5.453,5.144-9.037,5.144c-1.82,0-3.664-0.475-5.343-1.47c-4.986-2.957-6.63-9.395-3.674-14.38
		c1.904-3.212,3.568-6.593,4.942-10.052c2.142-5.385,8.245-8.015,13.63-5.876C97.933,198.008,100.564,204.11,98.423,209.495z
		 M104.671,182.505c-0.425,5.504-5.024,9.687-10.453,9.687c-0.272,0-0.544-0.011-0.82-0.032c-5.778-0.447-10.101-5.493-9.655-11.273
		c0.145-1.862,0.217-3.754,0.217-5.623c0-1.872-0.073-3.759-0.215-5.608c-0.448-5.778,3.874-10.826,9.653-11.273
		c5.765-0.443,10.826,3.875,11.273,9.653c0.185,2.385,0.279,4.817,0.279,7.227C104.95,177.671,104.856,180.107,104.671,182.505z
		 M152.008,182.492c-0.186-2.385-0.279-4.817-0.279-7.227c0-2.406,0.094-4.843,0.279-7.241c0.446-5.779,5.488-10.087,11.273-9.655
		c5.778,0.447,10.101,5.493,9.655,11.273c-0.145,1.862-0.217,3.754-0.217,5.624c0,1.872,0.073,3.759,0.215,5.608
		c0.448,5.778-3.874,10.826-9.653,11.273c-0.275,0.022-0.549,0.033-0.821,0.033C157.031,192.178,152.434,187.995,152.008,182.492z
		 M179.023,226.163c-1.679,0.995-3.522,1.47-5.342,1.47c-3.585,0-7.077-1.838-9.037-5.145c-2.462-4.152-4.612-8.528-6.392-13.006
		c-2.141-5.386,0.49-11.488,5.877-13.629c5.387-2.139,11.488,0.49,13.629,5.877c1.375,3.461,3.038,6.843,4.941,10.054
		C185.654,216.77,184.009,223.207,179.023,226.163z M182.704,138.736c-1.905,3.212-3.568,6.594-4.942,10.052
		c-1.636,4.115-5.583,6.622-9.756,6.622c-1.29,0-2.601-0.24-3.873-0.745c-5.387-2.141-8.018-8.243-5.877-13.629
		c1.779-4.476,3.93-8.852,6.393-13.006c2.957-4.986,9.396-6.628,14.38-3.674C184.016,127.313,185.66,133.751,182.704,138.736z"/>
	<path d="M193.102,95.095V27.286c0-10.271-8.357-18.628-18.628-18.628s-18.628,8.357-18.628,18.628v48.599
		C169.635,79.707,182.27,86.327,193.102,95.095z"/>
	<path d="M51.949,106.083c10.24-11.296,22.946-20.314,37.256-26.207v-52.59c0-6.259,1.737-12.118,4.751-17.126
		c-5.588,0.008-17.619,0.783-31.476,6.311C45.805,23.124,23.127,38.166,8.577,72.05c3.173-1.006,6.549-1.553,10.051-1.553
		C37.001,70.497,51.949,87.71,51.949,106.083z"/>
	<path d="M128.34,72.154c4.339,0,8.615,0.273,12.814,0.796V27.286c0-10.271-8.357-18.628-18.628-18.628
		c-10.271,0-18.628,8.357-18.628,18.628v47.803C111.736,73.176,119.92,72.154,128.34,72.154z"/>
	<path d="M37.256,126.218v-22.4c0-10.271-8.357-18.628-18.628-18.628S0,93.546,0,103.818v41.538c0,33.603,9.83,66.143,28.43,94.122
		l37.133,48.864h183.755C280.092,256.487,297,214.68,297,170.273V27.286c0-10.271-8.357-18.628-18.628-18.628
		s-18.628,8.357-18.628,18.628v95.239c0,4.058-3.289,7.346-7.346,7.346c-4.057,0-7.346-3.289-7.346-7.346V27.286
		c0-10.271-8.357-18.628-18.628-18.628c-10.271,0-18.628,8.357-18.628,18.628v82.334c14.769,17.844,23.655,40.726,23.655,65.645
		c0,56.855-46.256,103.11-103.11,103.11c-56.855,0-103.11-46.256-103.11-103.11C25.229,157.522,29.331,140.812,37.256,126.218z"/>
</g>
</svg>