<?xml version="1.0" encoding="iso-8859-1"?>
<!-- Uploaded to: SVG Repo, www.svgrepo.com, Generator: SVG Repo Mixer Tools -->
<svg fill="#000000" height="800px" width="800px" version="1.1" id="Capa_1" xmlns="http://www.w3.org/2000/svg" xmlns:xlink="http://www.w3.org/1999/xlink" 
	 viewBox="0 0 297.001 297.001" xml:space="preserve">
<circle cx="236.011" cy="243.119" r="32.765"/>
<path d="M177.906,191.549c-4.987-0.01-9.879-0.492-14.624-1.419l-71.691,28.014l9.346,9.346l100.153-39.325
	c-7.495,2.216-15.245,3.384-23.034,3.384C178.006,191.549,177.957,191.549,177.906,191.549z"/>
<path d="M1.951,272.166c-3.758,3.759-1.694,12.42,4.419,18.534H6.369c3.268,3.268,7.33,5.501,11.146,6.125
	c1.822,0.299,5.207,0.473,7.387-1.707L88.31,231.71l-22.951-22.951L1.951,272.166z"/>
<path d="M78.739,205.291l28.055-71.684c-0.922-4.731-1.4-9.608-1.409-14.579c-0.015-7.844,1.155-15.649,3.388-23.196L69.438,196.014
	c0.042,0.04,0.091,0.067,0.132,0.108L78.739,205.291z"/>
<path d="M173.025,161.267l-14.818-14.818l-19.403,19.403c5.726,4.764,12.163,8.309,19.014,10.621L173.025,161.267z M120.46,139.115
	c2.313,6.851,5.858,13.289,10.622,19.015l19.403-19.403l-14.818-14.818L120.46,139.115z M127.945,116.187l-9.622-9.622
	c-1.234,6.672-1.451,13.388-0.681,19.924L127.945,116.187z M200.725,88.489l-14.818-14.818l13.537-13.537l14.818,14.818
	L200.725,88.489z M170.463,73.669l-19.978-19.978l-12.409,14.666l18.849,18.85L170.463,73.669z M179.465,109.749l-14.818-14.818
	l13.537-13.537l14.818,14.818L179.465,109.749z M212.981,31.151L190.028,8.198c-2.08,1.641-4.017,3.507-5.769,5.578l-7.208,8.519
	l22.393,22.393L212.981,31.151z M207.164,52.412l13.537-13.537l14.818,14.818L221.982,67.23L207.164,52.412z M288.076,61.868
	l-0.104-0.104l-14.467,14.467l20.871,20.871c1.486-3.775,2.359-7.758,2.528-11.805C297.279,76.258,294.144,67.938,288.076,61.868z
	 M280.251,54.039l-14.467,14.467l-14.818-14.818l14.467-14.467L280.251,54.039z M202.005,147.73l-13.537,13.537l13.978,13.978
	c6.089-2.287,12.013-5.453,17.592-9.481L202.005,147.73z M165.926,138.728l13.537-13.537l14.818,14.818l-13.537,13.537
	L165.926,138.728z M243.243,146.449l-19.979-19.978l-13.537,13.537l18.85,18.85L243.243,146.449z M266.274,126.961l-21.75-21.75
	l-13.538,13.538l20.622,20.622L266.274,126.961z M252.246,97.49l22.393,22.394l8.519-7.208c2.071-1.752,3.936-3.689,5.578-5.769
	l-22.953-22.953L252.246,97.49z M190.369,178.611l-9.622-9.622l-10.303,10.303C176.981,180.061,183.697,179.844,190.369,178.611z
	 M149.203,94.928L131.17,76.895c-4.028,5.579-7.194,11.503-9.481,17.592l13.977,13.977L149.203,94.928z M158.208,131.007
	l-14.818-14.818l13.537-13.537l14.818,14.818L158.208,131.007z M229.703,74.951l13.537-13.537l14.818,14.818l-13.537,13.537
	L229.703,74.951z M191.722,52.41l-21.749-21.75l-12.41,14.666l20.622,20.621L191.722,52.41z M200.725,103.929l14.818,14.818
	l-13.537,13.537l-14.818-14.818L200.725,103.929z M236.803,97.489l-13.537,13.537l-14.818-14.818l13.537-13.537L236.803,97.489z
	 M235.17,8.962l-0.104-0.104C229.323,3.116,221.564,0,213.088,0c-0.482,0-0.965,0.011-1.452,0.031
	c-4.046,0.168-8.03,1.042-11.804,2.528l20.871,20.871L235.17,8.962z M257.711,31.501l-14.467,14.467L228.426,31.15l14.467-14.467
	L257.711,31.501z"/>
</svg>