<?xml version="1.0" encoding="iso-8859-1"?>
<!-- Uploaded to: SVG Repo, www.svgrepo.com, Generator: SVG Repo Mixer Tools -->
<!DOCTYPE svg PUBLIC "-//W3C//DTD SVG 1.1//EN" "http://www.w3.org/Graphics/SVG/1.1/DTD/svg11.dtd">
<svg fill="#000000" height="800px" width="800px" version="1.1" id="Capa_1" xmlns="http://www.w3.org/2000/svg" xmlns:xlink="http://www.w3.org/1999/xlink" 
	 viewBox="0 0 297 297" xml:space="preserve">
<g>
	<path d="M87.541,186.333c-8.128,1.748-16.533,3.556-33.087,3.556c-16.553,0-24.958-1.808-33.087-3.556
		c-6.05-1.301-11.835-2.545-21.368-3.002v35.735c11.339,0.487,18.184,1.956,24.837,3.386c7.621,1.638,14.819,3.186,29.618,3.186
		c14.799,0,21.998-1.548,29.618-3.186c8.128-1.747,16.533-3.555,33.087-3.555c16.551,0,24.955,1.808,33.083,3.555
		c7.62,1.638,14.817,3.186,29.614,3.186c14.798,0,21.995-1.548,29.615-3.186c8.127-1.747,16.531-3.555,33.083-3.555
		c16.551,0,24.955,1.808,33.083,3.555c6.046,1.3,11.841,2.54,21.363,2.998v-35.728c-11.341-0.486-18.179-1.958-24.832-3.389
		c-7.62-1.638-14.817-3.186-29.614-3.186c-14.797,0-21.994,1.548-29.613,3.186c-8.128,1.748-16.532,3.556-33.085,3.556
		c-16.551,0-24.955-1.808-33.083-3.556c-7.62-1.638-14.816-3.186-29.613-3.186C102.361,183.147,95.162,184.695,87.541,186.333z"/>
	<path d="M54.455,277.889c14.799,0,21.998-1.548,29.618-3.186c8.128-1.748,16.533-3.556,33.087-3.556
		c16.551,0,24.955,1.808,33.084,3.556c7.62,1.639,14.816,3.186,29.613,3.186c14.798,0,21.995-1.548,29.615-3.186
		c8.127-1.748,16.531-3.556,33.083-3.556c16.551,0,24.955,1.808,33.084,3.556c6.048,1.301,11.832,2.545,21.362,3.002v-35.735
		c-11.336-0.487-18.18-1.956-24.832-3.386c-7.62-1.639-14.817-3.186-29.614-3.186c-14.797,0-21.995,1.548-29.614,3.186
		c-8.127,1.747-16.532,3.555-33.084,3.555c-16.551,0-24.955-1.808-33.083-3.555c-7.62-1.639-14.817-3.186-29.614-3.186
		c-14.799,0-21.998,1.548-29.618,3.186c-8.128,1.747-16.533,3.555-33.087,3.555c-16.553,0-24.958-1.808-33.087-3.555
		c-6.047-1.3-11.843-2.54-21.368-2.998v35.728c11.343,0.486,18.183,1.958,24.837,3.389
		C32.457,276.341,39.656,277.889,54.455,277.889z"/>
	<path d="M141.797,168.518v-12.103h57.161v15.776c3.879-0.562,7.156-1.266,10.514-1.988c3.17-0.682,6.39-1.372,10.111-1.961V58.594
		c0-10.398,8.46-18.857,18.857-18.857c10.398,0,18.858,8.459,18.858,18.857v9.722c0,5.695,4.617,10.313,10.313,10.313
		c5.695,0,10.313-4.618,10.313-10.313v-9.722c0-21.771-17.711-39.482-39.483-39.482h-77.785c-21.771,0-39.482,17.711-39.482,39.482
		v108.095C130.075,166.86,136.435,167.592,141.797,168.518z M160.654,39.736h43.106c-2.972,5.444-4.69,11.663-4.788,18.267h-57.146
		C142.142,47.88,150.456,39.736,160.654,39.736z M141.797,78.629h57.161v18.268h-57.161V78.629z M141.797,117.522h57.161v18.267
		h-57.161V117.522z"/>
</g>
</svg>